<svg version="1.1" viewBox="0.0 0.0 100.0 100.0" fill="none" stroke="none" stroke-linecap="square" stroke-miterlimit="10" xmlns:xlink="http://www.w3.org/1999/xlink" xmlns="http://www.w3.org/2000/svg"><clipPath id="p.0"><path d="m0 0l100.0 0l0 100.0l-100.0 0l0 -100.0z" clip-rule="nonzero"/></clipPath><g clip-path="url(#p.0)"><path fill="#000000" fill-opacity="0.0" d="m0 0l100.0 0l0 100.0l-100.0 0z" fill-rule="evenodd"/><path fill="#000000" fill-opacity="0.0" d="m24.55354 77.19256l27.68504 -29.889767" fill-rule="evenodd"/><path stroke="#bf9000" stroke-width="1.0" stroke-linejoin="round" stroke-linecap="butt" d="m24.55354 77.19256l27.68504 -29.889767" fill-rule="evenodd"/><path fill="#38761d" d="m35.39143 58.37734l0 0c-6.062084 -8.201645 -5.6672497 -18.777596 0.88188934 -23.622047l0 0c3.145008 -2.3263855 7.317642 -2.9929008 11.599968 -1.8529167c4.2823296 1.1399841 8.323563 3.9930878 11.23468 7.931656l0 0c6.062084 8.201649 5.667248 18.7776 -0.88188934 23.622047l0 0c-6.549141 4.844452 -16.77256 2.1229095 -22.834648 -6.078739z" fill-rule="evenodd"/><path stroke="#000000" stroke-width="1.0" stroke-linejoin="round" stroke-linecap="butt" d="m35.39143 58.37734l0 0c-6.062084 -8.201645 -5.6672497 -18.777596 0.88188934 -23.622047l0 0c3.145008 -2.3263855 7.317642 -2.9929008 11.599968 -1.8529167c4.2823296 1.1399841 8.323563 3.9930878 11.23468 7.931656l0 0c6.062084 8.201649 5.667248 18.7776 -0.88188934 23.622047l0 0c-6.549141 4.844452 -16.77256 2.1229095 -22.834648 -6.078739z" fill-rule="evenodd"/><path fill="#cc0000" d="m43.52659 44.772263l0 0c-2.7396774 1.8525467 -6.074627 1.7185822 -7.448818 -0.2992134l0 0c-0.6599083 -0.9689789 -0.77015305 -2.2516747 -0.3064804 -3.5659065c0.46367264 -1.3142319 1.4632797 -2.5523453 2.778923 -3.441967l0 0c2.7396812 -1.8525467 6.0746307 -1.7185822 7.448818 0.2992134l0 0c1.3741875 2.0177956 0.26723862 5.155327 -2.4724426 7.0078735z" fill-rule="evenodd"/><path stroke="#cc0000" stroke-width="1.0" stroke-linejoin="round" stroke-linecap="butt" d="m43.52659 44.772263l0 0c-2.7396774 1.8525467 -6.074627 1.7185822 -7.448818 -0.2992134l0 0c-0.6599083 -0.9689789 -0.77015305 -2.2516747 -0.3064804 -3.5659065c0.46367264 -1.3142319 1.4632797 -2.5523453 2.778923 -3.441967l0 0c2.7396812 -1.8525467 6.0746307 -1.7185822 7.448818 0.2992134l0 0c1.3741875 2.0177956 0.26723862 5.155327 -2.4724426 7.0078735z" fill-rule="evenodd"/><path fill="#000000" fill-opacity="0.0" d="m52.675423 46.99311l27.685036 -29.889765" fill-rule="evenodd"/><path stroke="#bf9000" stroke-width="1.0" stroke-linejoin="round" stroke-linecap="butt" d="m52.675423 46.99311l27.685036 -29.889765" fill-rule="evenodd"/></g></svg>