<svg viewBox="0 0 814 279" version="1.1" xmlns="http://www.w3.org/2000/svg" xmlns:xlink="http://www.w3.org/1999/xlink">
    <title>SuppClub-logo-Bodoni-type</title>
    <g id="SuppClub---Colors-+-Logo-+-Explore" stroke="none" stroke-width="1" fill="none" fill-rule="evenodd">
        <g id="SuppClub-logo-Bodoni-type" transform="translate(0.303068, 0.000000)">
            <line x1="536.196932" y1="274.5" x2="642.196932" y2="169.5" id="Line" stroke="#E87602" stroke-width="8" stroke-linecap="round"></line>
            <circle id="Oval" fill="#A9AF11" cx="673.696932" cy="149" r="57"></circle>
            <ellipse id="Oval" fill="#EDEDB8" transform="translate(692.342716, 119.553236) rotate(30.000000) translate(-692.342716, -119.553236) " cx="692.342716" cy="119.553236" rx="16" ry="9.5"></ellipse>
            <path d="M644.845482,100.068239 C625.319267,119.594453 626.743889,152.677324 648.027463,173.960898 C669.311036,195.244471 702.393907,196.669093 721.920121,177.142878 C723.069307,175.993692 724.145925,174.797549 725.150198,173.559619 C715.974494,192.746255 696.383502,206 673.696932,206 C642.216702,206 616.696932,180.480231 616.696932,149 C616.696932,127.804681 628.265533,109.311354 645.432937,99.4898159 C645.236029,99.6811193 645.040082,99.8736387 644.845482,100.068239 Z" id="Combined-Shape" fill="#555D10"></path>
            <circle id="Oval" stroke="#0D0A04" stroke-width="8" cx="673.696932" cy="149" r="57"></circle>
            <line x1="694.196932" y1="117.5" x2="800.196932" y2="12.5" id="Line" stroke="#E87602" stroke-width="8" stroke-linecap="round"></line>
            <circle id="Oval" fill="#E87602" cx="799.696932" cy="13" r="13"></circle>
            <ellipse id="Oval" fill="#E4CD7F" transform="translate(804.535228, 6.430808) rotate(-43.000000) translate(-804.535228, -6.430808) " cx="804.535228" cy="6.43080823" rx="2" ry="4.5"></ellipse>
            <path d="M75.6,161.9 C75.6,172.22 71.67,181.01 63.81,188.27 C55.95,195.53 46.5,199.16 35.46,199.16 C28.98,199.16 21.24,197.18 12.24,193.22 C9.84,192.14 8.04,191.6 6.84,191.6 C5.4,191.6 4.5,193.34 4.14,196.82 C4.02,198.62 3.24,199.52 1.8,199.52 C0.6,199.52 0,198.8 0,197.36 C0,196.4 0.06,195.68 0.18,195.2 C1.14,187.88 1.62,181.1 1.62,174.86 C1.62,173.66 1.5,170.3 1.26,164.78 C1.14,164.06 1.08,163.1 1.08,161.9 C1.08,160.1 1.8,159.2 3.24,159.2 C4.44,159.2 5.28,160.64 5.76,163.52 C8.88,184.88 19.02,195.56 36.18,195.56 C43.5,195.56 49.17,193.49 53.19,189.35 C57.21,185.21 59.22,179.36 59.22,171.8 C59.22,165.08 57.27,159.35 53.37,154.61 C49.47,149.87 42.78,145.16 33.3,140.48 C21.9,134.84 13.98,129.38 9.54,124.1 C5.1,118.82 2.88,112.28 2.88,104.48 C2.88,94.52 6.09,86.3 12.51,79.82 C18.93,73.34 27.06,70.1 36.9,70.1 C40.98,70.1 46.62,71.48 53.82,74.24 C56.34,75.2 58.2,75.68 59.4,75.68 C60.72,75.68 61.59,75.44 62.01,74.96 C62.43,74.48 62.82,73.22 63.18,71.18 C63.42,69.98 64.08,69.38 65.16,69.38 C66.36,69.38 66.96,70.1 66.96,71.54 C66.96,72.5 66.9,73.22 66.78,73.7 C66.42,76.58 66.24,80.06 66.24,84.14 C66.24,89.9 66.54,94.46 67.14,97.82 L67.32,100.7 C67.44,102.02 66.9,102.68 65.7,102.68 C64.38,102.68 63.48,101.3 63,98.54 C61.68,91.46 58.56,85.55 53.64,80.81 C48.72,76.07 43.2,73.7 37.08,73.7 C31.08,73.7 26.31,75.62 22.77,79.46 C19.23,83.3 17.46,88.52 17.46,95.12 C17.46,102.8 20.04,108.98 25.2,113.66 C28.08,116.3 34.32,120.02 43.92,124.82 C55.2,130.46 63.3,136.19 68.22,142.01 C73.14,147.83 75.6,154.46 75.6,161.9 Z" id="Path" fill="#FDFAF8" fill-rule="nonzero"></path>
            <path d="M160.697117,190.88 C160.697117,191.72 159.377117,192.2 156.737117,192.32 C147.377117,192.92 139.157117,194.96 132.077117,198.44 C131.597117,198.68 131.177117,198.8 130.817117,198.8 C130.097117,198.8 129.737117,198.32 129.737117,197.36 L129.917117,187.28 C124.397117,195.2 116.657117,199.16 106.697117,199.16 C97.8171166,199.16 91.4571166,196.58 87.6171166,191.42 C86.0571166,189.26 85.1271166,187.28 84.8271166,185.48 C84.5271166,183.68 84.3771166,178.82 84.3771166,170.9 L84.3771166,129.68 C84.3771166,125.48 84.1371166,123.02 83.6571166,122.3 C83.1771166,121.58 81.5571166,121.16 78.7971166,121.04 L76.4571166,121.22 C73.2171166,121.46 71.5971166,120.98 71.5971166,119.78 C71.5971166,118.94 72.6171166,118.52 74.6571166,118.52 C76.8171166,118.52 79.9371166,118.64 84.0171166,118.88 C86.0571166,119 87.2571166,119.06 87.6171166,119.06 C91.8171166,119.06 95.7171166,118.88 99.3171166,118.52 L99.3171166,168.74 C99.3171166,177.98 99.9171166,184.1 101.117117,187.1 C103.037117,191.78 106.937117,194.12 112.817117,194.12 C119.177117,194.12 123.857117,191.48 126.857117,186.2 C129.017117,182.36 130.097117,176.24 130.097117,167.84 L130.097117,139.94 C130.097117,135.86 130.037117,132.8 129.917117,130.76 L129.557117,124.82 C129.437117,123.02 129.047117,121.97 128.387117,121.67 C127.727117,121.37 126.377117,121.22 124.337117,121.22 C119.297117,121.34 116.777117,120.8 116.777117,119.6 C116.777117,118.88 118.037117,118.52 120.557117,118.52 L122.177117,118.52 C123.137117,118.64 126.317117,118.7 131.717117,118.7 C138.917117,118.7 143.357117,118.64 145.037117,118.52 L145.037117,168.74 C145.037117,177.38 145.217117,182.84 145.577117,185.12 C145.937117,187.4 146.867117,188.72 148.367117,189.08 C149.867117,189.44 153.257117,189.62 158.537117,189.62 C159.977117,189.62 160.697117,190.04 160.697117,190.88 Z" id="Path" fill="#FDFAF8" fill-rule="nonzero"></path>
            <path d="M231.214233,157.04 C231.214233,169.04 227.824233,179.06 221.044233,187.1 C214.264233,195.14 205.834233,199.16 195.754233,199.16 C187.834233,199.16 181.714233,196.28 177.394233,190.52 L177.394233,232.46 C177.394233,235.1 177.484233,236.66 177.664233,237.14 C177.844233,237.62 178.414233,238.04 179.374233,238.4 C181.174233,238.76 184.654233,238.94 189.814233,238.94 C191.254233,238.94 191.974233,239.48 191.974233,240.56 C191.974233,241.4 191.194233,241.82 189.634233,241.82 L186.214233,241.82 C185.374233,241.82 183.994233,241.82 182.074233,241.82 C180.274233,241.7 178.714233,241.64 177.394233,241.64 C176.674233,241.64 174.694233,241.7 171.454233,241.82 C168.094233,241.82 165.574233,241.82 163.894233,241.82 L154.354233,241.82 C150.874233,241.82 149.134233,241.4 149.134233,240.56 C149.134233,239.48 149.854233,238.94 151.294233,238.94 L156.694233,238.94 C160.174233,238.94 162.034233,238.16 162.274233,236.6 C162.394233,235.88 162.454233,230.36 162.454233,220.04 L162.454233,130.4 C162.454233,127.04 160.834233,125.48 157.594233,125.72 C152.794233,125.48 150.274233,125.36 150.034233,125.36 C148.954233,125.36 148.414233,124.94 148.414233,124.1 C148.414233,123.02 149.734233,122.48 152.374233,122.48 C158.974233,122.6 164.974233,121.04 170.374233,117.8 C171.934233,116.84 173.134233,116.36 173.974233,116.36 C174.934233,116.36 175.564233,116.81 175.864233,117.71 C176.164233,118.61 176.374233,121.34 176.494233,125.9 C180.934233,119.54 187.294233,116.36 195.574233,116.36 C206.014233,116.36 214.564233,120.17 221.224233,127.79 C227.884233,135.41 231.214233,145.16 231.214233,157.04 Z M215.194233,157.22 C215.194233,147.86 213.754233,139.88 210.874233,133.28 C207.034233,124.16 201.094233,119.6 193.054233,119.6 C188.854233,119.6 185.254233,121.07 182.254233,124.01 C179.254233,126.95 177.634233,130.52 177.394233,134.72 C177.154233,140 177.214233,151.1 177.574233,168.02 C177.694233,176.54 177.874233,181.67 178.114233,183.41 C178.354233,185.15 179.134233,186.92 180.454233,188.72 C183.934233,193.64 188.434233,196.1 193.954233,196.1 C200.194233,196.1 204.874233,193.46 207.994233,188.18 C212.794233,180.14 215.194233,169.82 215.194233,157.22 Z" id="Shape" fill="#FDFAF8" fill-rule="nonzero"></path>
            <path d="M309.11135,157.04 C309.11135,169.04 305.72135,179.06 298.94135,187.1 C292.16135,195.14 283.73135,199.16 273.65135,199.16 C265.73135,199.16 259.61135,196.28 255.29135,190.52 L255.29135,232.46 C255.29135,235.1 255.38135,236.66 255.56135,237.14 C255.74135,237.62 256.31135,238.04 257.27135,238.4 C259.07135,238.76 262.55135,238.94 267.71135,238.94 C269.15135,238.94 269.87135,239.48 269.87135,240.56 C269.87135,241.4 269.09135,241.82 267.53135,241.82 L264.11135,241.82 C263.27135,241.82 261.89135,241.82 259.97135,241.82 C258.17135,241.7 256.61135,241.64 255.29135,241.64 C254.57135,241.64 252.59135,241.7 249.35135,241.82 C245.99135,241.82 243.47135,241.82 241.79135,241.82 L232.25135,241.82 C228.77135,241.82 227.03135,241.4 227.03135,240.56 C227.03135,239.48 227.75135,238.94 229.19135,238.94 L234.59135,238.94 C238.07135,238.94 239.93135,238.16 240.17135,236.6 C240.29135,235.88 240.35135,230.36 240.35135,220.04 L240.35135,130.4 C240.35135,127.04 238.73135,125.48 235.49135,125.72 C230.69135,125.48 228.17135,125.36 227.93135,125.36 C226.85135,125.36 226.31135,124.94 226.31135,124.1 C226.31135,123.02 227.63135,122.48 230.27135,122.48 C236.87135,122.6 242.87135,121.04 248.27135,117.8 C249.83135,116.84 251.03135,116.36 251.87135,116.36 C252.83135,116.36 253.46135,116.81 253.76135,117.71 C254.06135,118.61 254.27135,121.34 254.39135,125.9 C258.83135,119.54 265.19135,116.36 273.47135,116.36 C283.91135,116.36 292.46135,120.17 299.12135,127.79 C305.78135,135.41 309.11135,145.16 309.11135,157.04 Z M293.09135,157.22 C293.09135,147.86 291.65135,139.88 288.77135,133.28 C284.93135,124.16 278.99135,119.6 270.95135,119.6 C266.75135,119.6 263.15135,121.07 260.15135,124.01 C257.15135,126.95 255.53135,130.52 255.29135,134.72 C255.05135,140 255.11135,151.1 255.47135,168.02 C255.59135,176.54 255.77135,181.67 256.01135,183.41 C256.25135,185.15 257.03135,186.92 258.35135,188.72 C261.83135,193.64 266.33135,196.1 271.85135,196.1 C278.09135,196.1 282.77135,193.46 285.89135,188.18 C290.69135,180.14 293.09135,169.82 293.09135,157.22 Z" id="Shape" fill="#FDFAF8" fill-rule="nonzero"></path>
            <path d="M414.008466,156.86 C414.008466,156.62 413.888466,158.24 413.648466,161.72 C413.168466,168.68 412.928466,175.4 412.928466,181.88 C412.928466,182.6 413.048466,184.07 413.288466,186.29 C413.528466,188.51 413.648466,191.18 413.648466,194.3 L413.648466,195.92 C413.648466,197.48 413.168466,198.26 412.208466,198.26 C411.248466,198.26 410.408466,197.36 409.688466,195.56 C408.008466,191.6 406.328466,189.02 404.648466,187.82 C396.008466,195.38 385.628466,199.16 373.508466,199.16 C355.868466,199.16 341.258466,193.01 329.678466,180.71 C318.098466,168.41 312.308466,152.9 312.308466,134.18 C312.308466,115.34 317.618466,99.95 328.238466,88.01 C338.858466,76.07 352.568466,70.1 369.368466,70.1 C375.488466,70.1 380.378466,70.61 384.038466,71.63 C387.698466,72.65 392.228466,74.72 397.628466,77.84 C400.268466,79.4 402.248466,80.18 403.568466,80.18 C404.648466,80.18 405.668466,79.22 406.628466,77.3 C408.188466,73.94 409.448466,72.26 410.408466,72.26 C411.368466,72.26 411.848466,72.74 411.848466,73.7 C411.848466,74.18 411.728466,74.96 411.488466,76.04 C410.168466,81.8 409.508466,92.6 409.508466,108.44 C409.508466,110.72 409.328466,112.04 408.968466,112.4 C408.608466,112.76 408.128466,112.94 407.528466,112.94 C406.328466,112.94 405.548466,111.8 405.188466,109.52 C403.628466,99.92 401.408466,92.78 398.528466,88.1 C392.648466,78.5 383.408466,73.7 370.808466,73.7 C361.088466,73.7 353.408466,76.94 347.768466,83.42 C337.568466,95.06 332.468466,112.1 332.468466,134.54 C332.468466,154.58 336.668466,170.12 345.068466,181.16 C352.388466,190.76 362.108466,195.56 374.228466,195.56 C380.468466,195.56 386.168466,194.03 391.328466,190.97 C396.488466,187.91 400.448466,183.74 403.208466,178.46 C406.328466,172.34 408.548466,165.68 409.868466,158.48 C410.348466,155.6 411.128466,154.16 412.208466,154.16 C413.408466,154.16 414.008466,155.06 414.008466,156.86 Z" id="Path" fill="#FDFAF8" fill-rule="nonzero"></path>
            <path d="M452.665583,195.74 C452.665583,196.82 451.885583,197.36 450.325583,197.36 L448.165583,197.36 C447.925583,197.36 444.745583,197.24 438.625583,197 L433.045583,196.82 C432.085583,196.82 427.285583,197 418.645583,197.36 C417.925583,197.48 417.205583,197.54 416.485583,197.54 C414.685583,197.66 413.785583,197.12 413.785583,195.92 C413.785583,195.08 414.445583,194.66 415.765583,194.66 L420.445583,194.66 C423.805583,194.66 425.485583,193.94 425.485583,192.5 C425.605583,191.78 425.665583,187.1 425.665583,178.46 L425.665583,86.84 C425.665583,82.88 425.545583,80.72 425.305583,80.36 C424.945583,79.4 423.985583,78.92 422.425583,78.92 L420.985583,78.92 L415.945583,79.1 C414.265583,79.1 413.425583,78.56 413.425583,77.48 C413.425583,76.52 414.925583,75.98 417.925583,75.86 C423.685583,75.5 429.025583,74.18 433.945583,71.9 L437.725583,70.1 L439.165583,69.56 C440.125583,73.04 440.545583,78.32 440.425583,85.4 L440.245583,98.18 L440.425583,186.38 C440.425583,189.98 440.485583,192.11 440.605583,192.77 C440.725583,193.43 441.145583,193.88 441.865583,194.12 C441.985583,194.24 444.205583,194.36 448.525583,194.48 C451.285583,194.48 452.665583,194.9 452.665583,195.74 Z" id="Path" fill="#FDFAF8" fill-rule="nonzero"></path>
            <path d="M534.162699,190.88 C534.162699,191.72 532.842699,192.2 530.202699,192.32 C520.842699,192.92 512.622699,194.96 505.542699,198.44 C505.062699,198.68 504.642699,198.8 504.282699,198.8 C503.562699,198.8 503.202699,198.32 503.202699,197.36 L503.382699,187.28 C497.862699,195.2 490.122699,199.16 480.162699,199.16 C471.282699,199.16 464.922699,196.58 461.082699,191.42 C459.522699,189.26 458.592699,187.28 458.292699,185.48 C457.992699,183.68 457.842699,178.82 457.842699,170.9 L457.842699,129.68 C457.842699,125.48 457.602699,123.02 457.122699,122.3 C456.642699,121.58 455.022699,121.16 452.262699,121.04 L449.922699,121.22 C446.682699,121.46 445.062699,120.98 445.062699,119.78 C445.062699,118.94 446.082699,118.52 448.122699,118.52 C450.282699,118.52 453.402699,118.64 457.482699,118.88 C459.522699,119 460.722699,119.06 461.082699,119.06 C465.282699,119.06 469.182699,118.88 472.782699,118.52 L472.782699,168.74 C472.782699,177.98 473.382699,184.1 474.582699,187.1 C476.502699,191.78 480.402699,194.12 486.282699,194.12 C492.642699,194.12 497.322699,191.48 500.322699,186.2 C502.482699,182.36 503.562699,176.24 503.562699,167.84 L503.562699,139.94 C503.562699,135.86 503.502699,132.8 503.382699,130.76 L503.022699,124.82 C502.902699,123.02 502.512699,121.97 501.852699,121.67 C501.192699,121.37 499.842699,121.22 497.802699,121.22 C492.762699,121.34 490.242699,120.8 490.242699,119.6 C490.242699,118.88 491.502699,118.52 494.022699,118.52 L495.642699,118.52 C496.602699,118.64 499.782699,118.7 505.182699,118.7 C512.382699,118.7 516.822699,118.64 518.502699,118.52 L518.502699,168.74 C518.502699,177.38 518.682699,182.84 519.042699,185.12 C519.402699,187.4 520.332699,188.72 521.832699,189.08 C523.332699,189.44 526.722699,189.62 532.002699,189.62 C533.442699,189.62 534.162699,190.04 534.162699,190.88 Z" id="Path" fill="#FDFAF8" fill-rule="nonzero"></path>
            <path d="M603.239816,154.16 C603.239816,166.64 599.459816,177.26 591.899816,186.02 C584.339816,194.78 575.219816,199.16 564.539816,199.16 C560.819816,199.16 556.919816,198.38 552.839816,196.82 C548.759816,195.26 545.999816,194.48 544.559816,194.48 C543.239816,194.48 541.739816,195.05 540.059816,196.19 C538.379816,197.33 537.119816,197.9 536.279816,197.9 C535.319816,197.9 534.839816,195.92 534.839816,191.96 L534.839816,98.36 C534.839816,86.24 534.059816,79.7 532.499816,78.74 C531.899816,78.38 529.559816,78.2 525.479816,78.2 C522.599816,78.2 521.159816,77.72 521.159816,76.76 C521.159816,75.92 521.819816,75.5 523.139816,75.5 L525.659816,75.5 C532.259816,75.5 538.619816,74.12 544.739816,71.36 C546.539816,70.52 547.799816,70.1 548.519816,70.1 L549.239816,70.1 L549.239816,126.62 C553.799816,119.78 560.639816,116.36 569.759816,116.36 C579.839816,116.36 587.939816,119.81 594.059816,126.71 C600.179816,133.61 603.239816,142.76 603.239816,154.16 Z M586.859816,155.06 C586.859816,143.78 585.089816,135.08 581.549816,128.96 C578.009816,122.84 573.059816,119.78 566.699816,119.78 C563.339816,119.78 560.159816,120.83 557.159816,122.93 C554.159816,125.03 552.119816,127.64 551.039816,130.76 C549.959816,133.88 549.419816,143.36 549.419816,159.2 C549.419816,175.76 549.839816,185.6 550.679816,188.72 C551.999816,193.76 556.379816,196.28 563.819816,196.28 C570.899816,196.28 576.119816,193.58 579.479816,188.18 C584.399816,180.14 586.859816,169.1 586.859816,155.06 Z" id="Shape" fill="#FDFAF8" fill-rule="nonzero"></path>
        </g>
    </g>
</svg>
