<svg version="1.1" viewBox="0.0 0.0 179.41469816272965 112.0761154855643" fill="none" stroke="none" stroke-linecap="square" stroke-miterlimit="10" xmlns:xlink="http://www.w3.org/1999/xlink" xmlns="http://www.w3.org/2000/svg"><clipPath id="p.0"><path d="m0 0l179.4147 0l0 112.07612l-179.4147 0l0 -112.07612z" clip-rule="nonzero"/></clipPath><g clip-path="url(#p.0)"><path fill="#000000" fill-opacity="0.0" d="m0 0l179.4147 0l0 112.07612l-179.4147 0z" fill-rule="evenodd"/><path fill="#000000" fill-opacity="0.0" d="m28.459854 -12.569396l130.3937 0l0 161.60631l-130.3937 0z" fill-rule="evenodd"/><path fill="#000000" d="m120.75673 74.80498l-1.40625 18.421875q-3.046875 5.046875 -7.6875 8.984375q-4.625 3.921875 -10.90625 6.21875q-6.28125 2.28125 -14.375 2.28125q-12.203125 -0.109375 -21.703125 -5.390625q-9.5 -5.28125 -14.84375 -14.84375q-5.328125 -9.5625 -5.328125 -22.59375q0 -12.78125 5.265625 -22.34375q5.28125 -9.5625 14.84375 -14.890623q9.5625 -5.34375 22.46875 -5.34375q8.6875 0 15.671875 2.28125q6.984375 2.28125 12.140625 5.687498l2.34375 16.546875l-1.046875 0q-2.59375 -10.328125 -10.578125 -15.65625q-7.96875 -5.343748 -18.53125 -5.343748q-10.3125 0 -17.890625 4.874998q-7.5625 4.859375 -11.734375 13.609375q-4.15625 8.734375 -4.15625 20.46875q0 11.734375 4.15625 20.53125q4.171875 8.796875 11.609375 13.734375q7.453125 4.921875 17.3125 5.15625q8.328125 0 15.421875 -3.109375q7.109375 -3.109375 11.921875 -10.203125q4.8125 -7.109375 6.09375 -19.078125l0.9375 0z" fill-rule="nonzero"/><path fill="#000000" fill-opacity="0.0" d="m-18.138672 -46.556286l48.0 0l0 203.62206l-48.0 0z" fill-rule="evenodd"/><path fill="#000000" d="m29.017578 -0.16753687q2.421875 0 5.234375 0.3125q2.8125 0.296875 5.46875 0.828125q2.671875 0.53125 4.875 1.0624999q2.203125 0.53125 3.421875 1.140625l0 16.875l-1.375 0q0 -7.296874 -5.015625 -11.468749q-5.015625 -4.1875 -12.15625 -4.1875q-8.359375 0 -13.531249 5.25q-5.171875 5.234375 -5.171875 12.234374q0 2.890625 1.296875 6.765625q1.296875 3.875 4.781249 7.21875l29.953125 27.65625q4.5625 4.265629 6.078125 9.125004q1.515625 4.859375 1.515625 9.421875q0 12.609375 -7.671875 20.515625q-7.671875 7.90625 -20.75 7.90625q-3.640625 0 -8.59375 -0.765625q-4.937499 -0.75 -9.578125 -2.640625q-4.625 -1.90625 -7.671875 -4.953125q-0.453125 -2.421875 -0.453125 -6.0625q0 -3.65625 0.609375 -7.6875q0.609375 -4.03125 1.671875 -7.375l1.375 0q-0.765625 7.75 1.96875 13.53125q2.7343755 5.765625 7.9687505 8.734375q5.249999 2.96875 11.953124 2.65625q8.359375 -0.453125 14.359375 -5.84375q6.0 -5.40625 6.0 -14.515625q0 -4.40625 -1.515625 -7.984375q-1.515625 -3.578125 -4.40625 -6.15625l-29.1875 -27.046879q-4.5625005 -4.265625 -6.3906255 -9.359375q-1.8125 -5.09375 -1.8125 -9.5q0 -6.375 3.03125 -12.296874q3.0468755 -5.9375 9.046875 -9.65625q5.999999 -3.734375 14.671874 -3.734375zm19.0 1.515625l0 3.203125l-11.5625 0l0 -3.203125l11.5625 0z" fill-rule="nonzero"/><path fill="#000000" fill-opacity="0.0" d="m40.73763 -15.029487l102.645676 0l0 56.56693l-102.645676 0z" fill-rule="evenodd"/><path fill="#000000" d="m55.378254 1.957387l0 13.484375q0 2.203126 0.8125 3.890626q0.8125 1.6875 2.28125 2.625q1.46875 0.9375 3.40625 0.9375q2.046875 0 3.5781212 -0.890625q1.546875 -0.890625 2.390625 -2.46875q0.859375 -1.578125 0.859375 -3.703126l0 -13.875l1.453125 0l0 13.875q0 2.390626 -1.03125 4.187501q-1.03125 1.796875 -2.90625 2.8125q-1.859375 1.0 -4.343746 1.0q-2.546875 0 -4.46875 -0.984375q-1.90625 -1.0 -2.96875 -2.796875q-1.0625 -1.796875 -1.0625 -4.187501l0 -13.90625l2.0 0zm-1.90625 0l0 1.828125l-0.09375 0q0 -0.671875 -0.46875 -1.09375q-0.46875 -0.4375 -1.15625 -0.4375q0 0 -0.25 0q-0.234375 0 -0.234375 0l0 -0.296875l2.203125 0zm4.015625 0l0 0.296875q0 0 -0.25 0q-0.234375 0 -0.234375 0q-0.671875 0 -1.15625 0.4375q-0.46875 0.421875 -0.46875 1.09375l-0.0625 0l0 -1.828125l2.171875 0zm11.312496 0l0 1.828125l-0.09375 0q0 -0.671875 -0.46875 -1.09375q-0.46875 -0.4375 -1.15625 -0.4375q0 0 -0.25 0q-0.234375 0 -0.234375 0l0 -0.296875l2.203125 0zm3.46875 0l0 0.296875q0 0 -0.25 0q-0.234375 0 -0.234375 0q-0.671875 0 -1.15625 0.4375q-0.46875 0.421875 -0.46875 1.09375l-0.0625 0l0 -1.828125l2.171875 0zm6.9321747 0l4.046875 0q1.953125 0 3.359375 0.703125q1.421875 0.703125 2.1875 2.046875q0.765625 1.328125 0.765625 3.15625q0 1.421875 -0.5625 2.546875q-0.546875 1.109375 -1.46875 1.875q-0.90625 0.765625 -2.078125 1.15625q-1.15625 0.375 -2.40625 0.28125q-1.234375 -0.09375 -2.40625 -0.703125l0 -0.3125q0 0 0.515625 0.078125q0.53125 0.078125 1.34375 0.03125q0.8125 -0.046875 1.703125 -0.328125q0.90625 -0.296875 1.6875 -1.03125q0.796875 -0.734375 1.1875 -2.0625q0.09375 -0.328125 0.15625 -0.828125q0.0625 -0.515625 0.03125 -1.0q-0.03125 -2.125 -1.109375 -3.40625q-1.0625 -1.296875 -3.03125 -1.296875l-3.625 0q0 0 -0.078125 -0.21875q-0.0625 -0.234375 -0.140625 -0.453125q-0.078125 -0.234375 -0.078125 -0.234375zm0.390625 0l0 21.453125l-1.984375 0l0 -21.453125l1.984375 0zm-1.890625 19.21875l0 2.234375l-2.453125 0l0 -0.3125q0 0 0.1875 0q0.203125 0 0.203125 0q0.796875 0 1.359375 -0.5625q0.578125 -0.5625 0.609375 -1.359375l0.09375 0zm0 -16.984375l-0.09375 0q0 -0.796875 -0.59375 -1.359375q-0.578125 -0.578125 -1.375 -0.578125q0 0 -0.1875 0q-0.171875 0 -0.171875 0l-0.03125 -0.296875l2.453125 0l0 2.234375zm1.796875 16.984375l0.09375 0q0.03125 0.796875 0.59375 1.359375q0.578125 0.5625 1.375 0.5625q0 0 0.1875 0q0.203125 0 0.203125 0l0 0.3125l-2.453125 0l0 -2.234375zm17.238495 -19.21875l4.046875 0q1.953125 0 3.359375 0.703125q1.421875 0.703125 2.1875 2.046875q0.765625 1.328125 0.765625 3.15625q0 1.421875 -0.5625 2.546875q-0.546875 1.109375 -1.46875 1.875q-0.90625 0.765625 -2.078125 1.15625q-1.15625 0.375 -2.40625 0.28125q-1.234375 -0.09375 -2.40625 -0.703125l0 -0.3125q0 0 0.515625 0.078125q0.53125 0.078125 1.34375 0.03125q0.8125 -0.046875 1.703125 -0.328125q0.90625 -0.296875 1.6875 -1.03125q0.796875 -0.734375 1.1875 -2.0625q0.09375 -0.328125 0.15625 -0.828125q0.0625 -0.515625 0.03125 -1.0q-0.03125 -2.125 -1.109375 -3.40625q-1.0625 -1.296875 -3.03125 -1.296875l-3.625 0q0 0 -0.078125 -0.21875q-0.0625 -0.234375 -0.140625 -0.453125q-0.078125 -0.234375 -0.078125 -0.234375zm0.390625 0l0 21.453125l-1.984375 0l0 -21.453125l1.984375 0zm-1.890625 19.21875l0 2.234375l-2.453125 0l0 -0.3125q0 0 0.1875 0q0.203125 0 0.203125 0q0.796875 0 1.359375 -0.5625q0.578125 -0.5625 0.609375 -1.359375l0.09375 0zm0 -16.984375l-0.09375 0q0 -0.796875 -0.59375 -1.359375q-0.578125 -0.578125 -1.375 -0.578125q0 0 -0.1875 0q-0.171875 0 -0.171875 0l-0.03125 -0.296875l2.453125 0l0 2.234375zm1.796875 16.984375l0.09375 0q0.03125 0.796875 0.59375 1.359375q0.578125 0.5625 1.375 0.5625q0 0 0.1875 0q0.203125 0 0.203125 0l0 0.3125l-2.453125 0l0 -2.234375z" fill-rule="nonzero"/><path fill="#000000" fill-opacity="0.0" d="m108.7795 34.849873l112.314964 0l0 56.56693l-112.314964 0z" fill-rule="evenodd"/><path fill="#000000" d="m123.967 51.836746l0 21.453125l-1.984375 0l0 -21.453125l1.984375 0zm8.281258 20.5l0 0.953125l-8.375008 0l0 -0.953125l8.375008 0zm1.875 -4.015625l-1.78125 4.96875l-5.0937576 0l1.1093826 -0.953125q1.625 0 2.640625 -0.5q1.03125 -0.515625 1.671875 -1.421875q0.65625 -0.921875 1.140625 -2.09375l0.3125 0zm-12.046883 2.734375l0 2.234375l-2.453125 0l0 -0.3125q0 0 0.1875 0q0.203125 0 0.203125 0q0.796875 0 1.359375 -0.5625q0.578125 -0.5625 0.609375 -1.359375l0.09375 0zm0 -16.984375l-0.09375 0q-0.03125 -0.796875 -0.609375 -1.359375q-0.5625 -0.578125 -1.359375 -0.578125q0 0 -0.203125 0q-0.1875 0 -0.1875 0l0 -0.296875l2.453125 0l0 2.234375zm1.796875 0l0 -2.234375l2.453125 0l0 0.296875q-0.03125 0 -0.21875 0q-0.171875 0 -0.171875 0q-0.796875 0 -1.375 0.578125q-0.5625 0.5625 -0.59375 1.359375l-0.09375 0zm16.315742 -2.234375l0 13.484375q0 2.203125 0.8125 3.890625q0.8125 1.6875 2.28125 2.625q1.46875 0.9375 3.40625 0.9375q2.046875 0 3.578125 -0.890625q1.546875 -0.890625 2.390625 -2.46875q0.859375 -1.578125 0.859375 -3.703125l0 -13.875l1.453125 0l0 13.875q0 2.390625 -1.03125 4.1875q-1.03125 1.796875 -2.90625 2.8125q-1.859375 1.0 -4.34375 1.0q-2.546875 0 -4.46875 -0.984375q-1.90625 -1.0 -2.96875 -2.796875q-1.0625 -1.796875 -1.0625 -4.1875l0 -13.90625l2.0 0zm-1.90625 0l0 1.828125l-0.09375 0q0 -0.671875 -0.46875 -1.09375q-0.46875 -0.4375 -1.15625 -0.4375q0 0 -0.25 0q-0.234375 0 -0.234375 0l0 -0.296875l2.203125 0zm4.015625 0l0 0.296875q0 0 -0.25 0q-0.234375 0 -0.234375 0q-0.671875 0 -1.15625 0.4375q-0.46875 0.421875 -0.46875 1.09375l-0.0625 0l0 -1.828125l2.171875 0zm11.3125 0l0 1.828125l-0.09375 0q0 -0.671875 -0.46875 -1.09375q-0.46875 -0.4375 -1.15625 -0.4375q0 0 -0.25 0q-0.234375 0 -0.234375 0l0 -0.296875l2.203125 0zm3.46875 0l0 0.296875q0 0 -0.25 0q-0.234375 0 -0.234375 0q-0.671875 0 -1.15625 0.4375q-0.46875 0.421875 -0.46875 1.09375l-0.0625 0l0 -1.828125l2.171875 0zm5.8227997 0l3.25 0q2.140625 0 3.625 0.640625q1.5 0.640625 2.265625 1.796875q0.765625 1.140625 0.765625 2.671875q0 1.296875 -0.5 2.265625q-0.484375 0.953125 -1.25 1.5625q-0.765625 0.59375 -1.625 0.828125q1.625 0.25 2.796875 1.078125q1.1875 0.828125 1.8125 2.078125q0.640625 1.234375 0.640625 2.765625q0 1.71875 -0.828125 3.03125q-0.828125 1.296875 -2.4375 2.015625q-1.609375 0.71875 -3.890625 0.71875l-3.390625 0q0 0 0.015625 -0.265625q0.015625 -0.28125 0.015625 -0.5625q0 -0.28125 0 -0.28125l3.25 0q1.59375 0 2.6875 -0.5625q1.109375 -0.5625 1.6875 -1.65625q0.578125 -1.109375 0.578125 -2.65625q0 -1.703125 -0.65625 -2.78125q-0.65625 -1.078125 -1.703125 -1.625q-1.03125 -0.546875 -2.25 -0.75q-1.203125 -0.203125 -2.3125 -0.203125l0 -0.28125q0.703125 0 1.5625 -0.140625q0.859375 -0.15625 1.65625 -0.609375q0.796875 -0.46875 1.3125 -1.375q0.53125 -0.90625 0.53125 -2.375q0 -1.375 -0.515625 -2.359375q-0.5 -0.984375 -1.5 -1.484375q-1.0 -0.515625 -2.46875 -0.515625l-2.8125 0q0 -0.03125 -0.078125 -0.25q-0.078125 -0.234375 -0.15625 -0.46875q-0.078125 -0.25 -0.078125 -0.25zm1.5 0l0 21.453125l-1.984375 0l0 -21.453125l1.984375 0zm-1.890625 19.21875l0 2.234375l-2.453125 0l0.03125 -0.3125q0.0625 0 0.1875 0q0.140625 0 0.171875 0q0.796875 0 1.375 -0.5625q0.59375 -0.5625 0.59375 -1.359375l0.09375 0zm0 -16.984375l-0.09375 0q0 -0.796875 -0.59375 -1.359375q-0.578125 -0.578125 -1.375 -0.578125q-0.03125 0 -0.171875 0q-0.125 0 -0.1875 0l-0.03125 -0.296875l2.453125 0l0 2.234375z" fill-rule="nonzero"/><path fill="#38761d" d="m76.776474 75.34687l0 0c-6.062088 -8.201645 -5.6672516 -18.7776 0.88188934 -23.622051l0 0c3.1450043 -2.3263855 7.317642 -2.9929008 11.599968 -1.8529129c4.2823257 1.1399841 8.323563 3.993084 11.23468 7.931656l0 0c6.0620804 8.201641 5.667244 18.777592 -0.88188934 23.622044l0 0c-6.549141 4.844452 -16.77256 2.1229095 -22.834648 -6.0787354z" fill-rule="evenodd"/><path stroke="#000000" stroke-width="1.0" stroke-linejoin="round" stroke-linecap="butt" d="m76.776474 75.34687l0 0c-6.062088 -8.201645 -5.6672516 -18.7776 0.88188934 -23.622051l0 0c3.1450043 -2.3263855 7.317642 -2.9929008 11.599968 -1.8529129c4.2823257 1.1399841 8.323563 3.993084 11.23468 7.931656l0 0c6.0620804 8.201641 5.667244 18.777592 -0.88188934 23.622044l0 0c-6.549141 4.844452 -16.77256 2.1229095 -22.834648 -6.0787354z" fill-rule="evenodd"/><path fill="#cc0000" d="m84.91163 61.74179l0 0c-2.7396774 1.8525467 -6.074623 1.718586 -7.4488144 -0.2992134l0 0c-0.6599121 -0.9689789 -0.77015686 -2.2516747 -0.3064804 -3.5659027c0.46366882 -1.3142319 1.4632797 -2.5523453 2.778923 -3.4419708l0 0c2.7396774 -1.8525467 6.0746307 -1.7185822 7.4488144 0.2992134l0 0c1.3741913 2.0177956 0.26724243 5.155327 -2.4724426 7.0078735z" fill-rule="evenodd"/><path stroke="#cc0000" stroke-width="1.0" stroke-linejoin="round" stroke-linecap="butt" d="m84.91163 61.74179l0 0c-2.7396774 1.8525467 -6.074623 1.718586 -7.4488144 -0.2992134l0 0c-0.6599121 -0.9689789 -0.77015686 -2.2516747 -0.3064804 -3.5659027c0.46366882 -1.3142319 1.4632797 -2.5523453 2.778923 -3.4419708l0 0c2.7396774 -1.8525467 6.0746307 -1.7185822 7.4488144 0.2992134l0 0c1.3741913 2.0177956 0.26724243 5.155327 -2.4724426 7.0078735z" fill-rule="evenodd"/><path fill="#000000" fill-opacity="0.0" d="m94.06046 63.96264l49.322838 -50.70866" fill-rule="evenodd"/><path stroke="#bf9000" stroke-width="1.0" stroke-linejoin="round" stroke-linecap="butt" d="m94.06046 63.96264l49.322838 -50.70866" fill-rule="evenodd"/><path fill="#000000" fill-opacity="0.0" d="m79.323586 79.16723l-12.566933 11.496063" fill-rule="evenodd"/><path stroke="#bf9000" stroke-width="1.0" stroke-linejoin="round" stroke-linecap="butt" d="m79.323586 79.16723l-12.566933 11.496063" fill-rule="evenodd"/></g></svg>