<svg viewBox="0 0 561 557" version="1.1" xmlns="http://www.w3.org/2000/svg">
  <g id="SuppClub---Colors-+-Logo-+-Explore" stroke="none" stroke-width="1" fill="none" fill-rule="evenodd">
    <g id="SuppClubb-app-icon-02" transform="translate(-228.000000, -237.000000)">
      <g id="SuppClub-olive-symbol-solo" transform="translate(235.000000, 237.000000)">
        <line x1="1" y1="549" x2="213" y2="339" id="Line" stroke="#E87602" stroke-width="16" stroke-linecap="round"></line>
        <g id="Group-2" transform="translate(162.000000, 184.000000)">
          <g id="Group">
            <circle id="Oval" fill="#A9AF11" cx="114" cy="114" r="114"></circle>
            <ellipse id="Oval" fill="#EDEDB8" transform="translate(151.291567, 55.106473) rotate(37.000000) translate(-151.291567, -55.106473) " cx="151.291567" cy="55.1064727" rx="32" ry="19"></ellipse>
            <path d="M56.2970993,16.1364778 C17.2446701,55.188907 20.0939125,121.354647 62.6610603,163.921795 C105.228208,206.488943 171.393948,209.338185 210.446378,170.285756 C212.744164,167.98797 214.896888,165.596318 216.904995,163.12113 C198.553811,201.493398 159.37238,228 114,228 C51.0395385,228 0,176.960461 0,114 C0,71.6110063 23.1354072,34.6255764 57.468015,14.981917 C57.0761898,15.364207 56.6853049,15.7482721 56.2970993,16.1364778 Z" id="Combined-Shape" fill="#555D10"></path>
          </g>
          <circle id="Oval" stroke="#0D0A04" stroke-width="16" cx="114" cy="114" r="114"></circle>
        </g>
        <line x1="317" y1="235" x2="529" y2="25" id="Line" stroke="#E87602" stroke-width="16" stroke-linecap="round"></line>
        <circle id="Oval" fill="#E87602" cx="528" cy="26" r="26"></circle>
        <ellipse id="Oval" fill="#E4CD7F" transform="translate(537.676591, 12.861616) rotate(-43.000000) translate(-537.676591, -12.861616) " cx="537.676591" cy="12.8616165" rx="4" ry="9"></ellipse>
      </g>
    </g>
  </g>
</svg>
